<?xml version="1.0" encoding="UTF-8" standalone="no"?>
<svg width="33px" height="27px" viewBox="0 0 33 27" version="1.1" xmlns="http://www.w3.org/2000/svg" xmlns:xlink="http://www.w3.org/1999/xlink">
    <!-- Generator: Sketch 3.8.3 (29802) - http://www.bohemiancoding.com/sketch -->
    <title>circle-check</title>
    <desc>Created with Sketch.</desc>
    <defs>
        <path d="M22.0980476,5.32835862e-15 C22.925937,5.32835862e-15 23.6328425,0.292960859 24.2187642,0.878882577 C24.804686,1.46480429 25.0976468,2.17170985 25.0976468,2.99959924 C25.0976468,3.82748863 24.8006865,4.53839365 24.2067659,5.1323143 L11.4824659,17.8566143 C10.9045431,18.4345371 10.201637,18.7234984 9.37374762,18.7234984 C8.52986037,18.7234984 7.81895535,18.4345371 7.24103256,17.8566143 L0.86688418,11.5064627 C0.288961393,10.9285399 0,10.2176349 0,9.37374762 C0,8.54585823 0.292960859,7.83895268 0.878882577,7.25303096 C1.46480429,6.66710924 2.17170985,6.37414838 2.99959924,6.37414838 C3.82748863,6.37414838 4.53839365,6.67110871 5.1323143,7.26502935 L9.37374762,11.5064627 L19.9653325,0.890880974 C20.5592532,0.296960325 21.2701582,0 22.0980476,0 L22.0980476,5.32835862e-15 Z" id="path-1"></path>
        <filter x="-50%" y="-50%" width="200%" height="200%" filterUnits="objectBoundingBox" id="filter-2">
            <feOffset dx="0" dy="2" in="SourceAlpha" result="shadowOffsetOuter1"></feOffset>
            <feGaussianBlur stdDeviation="2" in="shadowOffsetOuter1" result="shadowBlurOuter1"></feGaussianBlur>
            <feColorMatrix values="0 0 0 0 0   0 0 0 0 0   0 0 0 0 0  0 0 0 0.5 0" type="matrix" in="shadowBlurOuter1"></feColorMatrix>
        </filter>
    </defs>
    <g id="Welcome" stroke="none" stroke-width="1" fill="none" fill-rule="evenodd">
        <g id="Desktop" transform="translate(-177.000000, -234.000000)">
            <g id="circle-check" transform="translate(181.000000, 236.000000)">
                <g id="Shape">
                    <use fill="black" fill-opacity="1" filter="url(#filter-2)" xlink:href="#path-1"></use>
                    <use fill="#80ED09" fill-rule="evenodd" xlink:href="#path-1"></use>
                </g>
            </g>
        </g>
    </g>
</svg>