<?xml version="1.0" encoding="UTF-8" standalone="no"?>
<svg width="69px" height="68px" viewBox="0 0 69 68" version="1.1" xmlns="http://www.w3.org/2000/svg" xmlns:xlink="http://www.w3.org/1999/xlink">
    <!-- Generator: Sketch 3.8.3 (29802) - http://www.bohemiancoding.com/sketch -->
    <title>Layer_1</title>
    <desc>Created with Sketch.</desc>
    <defs>
        <path d="M59.7922,37.9797091 L59.0724,37.0057424 C58.3932667,36.0846424 57.4315,35.2347091 56.9272333,35.1859091 C55.998,35.1066091 55.9146333,34.8199091 56.0366333,34.0655424 C56.3314667,32.2233424 52.8910667,33.3355758 52.8910667,33.3355758 C51.4921333,33.7015758 50.9329667,33.2074758 51.3579333,31.3896758 L51.7788333,29.8728091 C52.2322667,28.2522424 51.9781,27.8069424 50.5324,27.7093424 C49.2941,27.6178424 48.7288333,27.5060091 49.2697,25.9932091 C49.5706333,25.1432758 50.0728667,24.9358758 48.5702333,22.7642758 L47.5698333,21.4019424 C50.1623333,16.8391424 50.0159333,10.9892424 46.6955,6.49354242 C42.2079333,0.405742424 33.6333667,-0.893557576 27.5455667,3.59807576 C26.6671667,4.24467576 25.9026333,4.98480909 25.2296,5.77780909 C24.8168333,5.65377576 24.3918667,5.56430909 23.9465667,5.56430909 C19.6664,5.56430909 17.3707667,11.7924091 16.9295333,24.6024091 C16.9254667,24.7101758 16.9376667,24.8199758 16.9722333,24.9236758 L16.9844333,24.9643424 C16.9742667,24.9684091 16.9620667,24.9724758 16.9539333,24.9765424 L10.8254667,27.7683091 C9.55666667,28.3498424 8.56846667,29.4010758 8.07233333,30.7044424 L0.252133333,51.1414758 C-0.498166667,53.1077091 0.483933333,55.3118424 2.4522,56.0662091 L14.2618,60.5863091 C15.2052667,60.9482424 16.2524333,60.9157091 17.1796333,60.5070091 C18.1027667,60.0942424 18.8246,59.3317424 19.1845,58.3862424 L26.9864,37.9939424 C27.4947333,36.6722758 27.45,35.1899758 26.8583,33.8947424 L24.1966667,28.0611091 C25.1665667,27.2904758 26.1893333,26.3693758 27.1673667,25.3161091 C30.4959333,27.9655424 34.8493,28.9171424 38.9200333,27.9289424 L51.0773333,44.4091091 C51.7483333,45.3302091 53.2225,46.2838424 54.3388,46.5298758 L58.2102667,47.3798091 C59.3265667,47.6258424 60.3310333,46.8958758 60.4388,45.7551758 L60.8271667,41.7251091 C60.9349333,40.5844091 60.4713333,38.9008091 59.7922,37.9797091 L59.7922,37.9797091 Z M29.3694667,16.5219424 C29.1519,16.3308091 28.9506,16.0380091 28.7737,15.5723758 C28.7737,15.5723758 28.1982667,13.9477424 28.7025333,12.0303091 C29.3064333,13.5329424 29.5057,15.0294758 29.3694667,16.5219424 L29.3694667,16.5219424 Z M21.6143333,32.9167091 C20.9636667,34.6247091 19.0523333,35.4787091 17.3463667,34.8260091 C15.6404,34.1733091 14.7884333,32.2640091 15.4391,30.5600758 C15.8823667,29.4092091 16.8949667,28.6609424 18.0234667,28.4840424 L18.5480667,30.2469424 C18.6355,30.5377091 18.8449333,30.7756091 19.1235,30.8935424 C19.2516,30.9443758 19.3858,30.9728424 19.52,30.9728424 C19.6826667,30.9728424 19.8412667,30.9362424 19.9876667,30.8569424 C20.0710333,30.8142424 20.5956333,30.5356758 21.3540667,30.0619091 C21.8522333,30.8996424 21.9884667,31.9386758 21.6143333,32.9167091 L21.6143333,32.9167091 Z M23.1088333,26.2961758 C22.0555667,25.1127758 20.5387,24.4499091 18.9689667,24.5048091 C19.5159333,9.38087576 22.5781333,7.63017576 23.9181,7.60170909 C21.1771667,12.1970424 21.2808667,18.1689424 24.6521333,22.7439424 C24.9632333,23.1648424 25.315,23.5430424 25.6606667,23.9151424 C24.827,24.8179424 23.9547,25.6129758 23.1088333,26.2961758 L23.1088333,26.2961758 Z M38.8712333,10.3548424 L31.4638,15.8204424 C31.4841333,13.8074424 30.9534333,11.7944424 29.8574667,9.77127576 C30.2092333,9.33817576 30.6362333,8.91320909 31.1750667,8.51670909 C35.1868333,5.55820909 38.6272333,8.30524242 38.6272333,8.30524242 C39.7171,9.12467576 39.7882667,9.67570909 38.8712333,10.3548424 L38.8712333,10.3548424 Z" id="path-1"></path>
        <filter x="-50%" y="-50%" width="200%" height="200%" filterUnits="objectBoundingBox" id="filter-2">
            <feOffset dx="0" dy="-2" in="SourceAlpha" result="shadowOffsetOuter1"></feOffset>
            <feGaussianBlur stdDeviation="2" in="shadowOffsetOuter1" result="shadowBlurOuter1"></feGaussianBlur>
            <feColorMatrix values="0 0 0 0 0   0 0 0 0 0   0 0 0 0 0  0 0 0 0.5 0" type="matrix" in="shadowBlurOuter1"></feColorMatrix>
        </filter>
        <filter x="-50%" y="-50%" width="200%" height="200%" filterUnits="objectBoundingBox" id="filter-3">
            <feGaussianBlur stdDeviation="1.5" in="SourceAlpha" result="shadowBlurInner1"></feGaussianBlur>
            <feOffset dx="0" dy="1" in="shadowBlurInner1" result="shadowOffsetInner1"></feOffset>
            <feComposite in="shadowOffsetInner1" in2="SourceAlpha" operator="arithmetic" k2="-1" k3="1" result="shadowInnerInner1"></feComposite>
            <feColorMatrix values="0 0 0 0 0   0 0 0 0 0   0 0 0 0 0  0 0 0 0.5 0" type="matrix" in="shadowInnerInner1"></feColorMatrix>
        </filter>
    </defs>
    <g id="Welcome" stroke="none" stroke-width="1" fill="none" fill-rule="evenodd">
        <g id="Desktop" transform="translate(-521.000000, -402.000000)">
            <g id="Group-3" transform="translate(391.000000, 276.000000)">
                <g id="room-key" transform="translate(134.000000, 131.000000)">
                    <g id="Layer_1">
                        <g id="room-key">
                            <g id="Shape">
                                <use fill="black" fill-opacity="1" filter="url(#filter-2)" xlink:href="#path-1"></use>
                                <use fill="#B8E986" fill-rule="evenodd" xlink:href="#path-1"></use>
                                <use fill="black" fill-opacity="1" filter="url(#filter-3)" xlink:href="#path-1"></use>
                            </g>
                        </g>
                    </g>
                </g>
            </g>
        </g>
    </g>
</svg>