<?xml version="1.0" encoding="UTF-8" standalone="no"?>
<svg width="69px" height="101px" viewBox="0 0 69 101" version="1.1" xmlns="http://www.w3.org/2000/svg" xmlns:xlink="http://www.w3.org/1999/xlink">
    <!-- Generator: Sketch 3.8.3 (29802) - http://www.bohemiancoding.com/sketch -->
    <title>lock2</title>
    <desc>Created with Sketch.</desc>
    <defs>
        <path d="M56.425,37.2 L54.9,37.2 L54.9,18.6 C54.9,8.3452 46.6894,0 36.6,0 L24.4,0 C14.3106,0 6.1,8.3452 6.1,18.6 L6.1,37.2 L4.575,37.2 C2.0618,37.2 0,39.2956 0,41.85 L0,88.35 C0,90.9044 2.0618,93 4.575,93 L56.425,93 C58.9382,93 61,90.9044 61,88.35 L61,41.85 C61,39.2956 58.9382,37.2 56.425,37.2 L56.425,37.2 Z M18.3,18.6 C18.3,15.1838 21.0389,12.4 24.4,12.4 L36.6,12.4 C39.9611,12.4 42.7,15.1838 42.7,18.6 L42.7,37.2 L18.3,37.2 L18.3,18.6 L18.3,18.6 Z" id="path-1"></path>
        <filter x="-50%" y="-50%" width="200%" height="200%" filterUnits="objectBoundingBox" id="filter-2">
            <feOffset dx="0" dy="2" in="SourceAlpha" result="shadowOffsetOuter1"></feOffset>
            <feGaussianBlur stdDeviation="2" in="shadowOffsetOuter1" result="shadowBlurOuter1"></feGaussianBlur>
            <feColorMatrix values="0 0 0 0 0   0 0 0 0 0   0 0 0 0 0  0 0 0 0.5 0" type="matrix" in="shadowBlurOuter1"></feColorMatrix>
        </filter>
        <filter x="-50%" y="-50%" width="200%" height="200%" filterUnits="objectBoundingBox" id="filter-3">
            <feGaussianBlur stdDeviation="1.5" in="SourceAlpha" result="shadowBlurInner1"></feGaussianBlur>
            <feOffset dx="0" dy="-4" in="shadowBlurInner1" result="shadowOffsetInner1"></feOffset>
            <feComposite in="shadowOffsetInner1" in2="SourceAlpha" operator="arithmetic" k2="-1" k3="1" result="shadowInnerInner1"></feComposite>
            <feColorMatrix values="0 0 0 0 0   0 0 0 0 0   0 0 0 0 0  0 0 0 0.5 0" type="matrix" in="shadowInnerInner1"></feColorMatrix>
        </filter>
    </defs>
    <g id="Welcome" stroke="none" stroke-width="1" fill="none" fill-rule="evenodd">
        <g id="Desktop" transform="translate(-447.000000, -320.000000)">
            <g id="Group-3" transform="translate(391.000000, 276.000000)">
                <g id="lock2" transform="translate(60.000000, 46.000000)">
                    <g id="Shape">
                        <use fill="black" fill-opacity="1" filter="url(#filter-2)" xlink:href="#path-1"></use>
                        <use fill="#B8E986" fill-rule="evenodd" xlink:href="#path-1"></use>
                        <use fill="black" fill-opacity="1" filter="url(#filter-3)" xlink:href="#path-1"></use>
                    </g>
                </g>
            </g>
        </g>
    </g>
</svg>